<?xml version="1.0" standalone="no"?>
<!DOCTYPE svg PUBLIC "-//W3C//DTD SVG 20010904//EN"
 "http://www.w3.org/TR/2001/REC-SVG-20010904/DTD/svg10.dtd">
<svg version="1.0" xmlns="http://www.w3.org/2000/svg" viewBox="0 0 512.000000 512.000000"
 preserveAspectRatio="xMidYMid meet">

<g transform="translate(0.000000,512.000000) scale(0.100000,-0.100000)"
fill="#DD7B00" stroke="none">
<path d="M893 5105 c-86 -19 -157 -59 -229 -130 -276 -274 -123 -742 264 -806
254 -42 502 140 543 399 40 249 -135 495 -385 541 -75 14 -115 13 -193 -4z
m255 -180 c60 -33 110 -84 144 -147 19 -36 23 -58 23 -138 0 -86 -3 -100 -29
-148 -34 -60 -85 -111 -148 -144 -36 -19 -58 -23 -138 -23 -80 0 -102 4 -138
23 -63 33 -114 84 -148 144 -26 48 -29 62 -29 148 0 79 4 102 23 137 67 127
168 186 307 180 66 -3 90 -8 133 -32z"/>
<path d="M4213 5105 c-86 -19 -157 -59 -229 -130 -276 -274 -123 -742 264
-806 254 -42 502 140 543 399 40 249 -135 495 -385 541 -75 14 -115 13 -193
-4z m255 -180 c60 -33 110 -84 144 -147 19 -36 23 -58 23 -138 0 -86 -3 -100
-29 -148 -34 -60 -85 -111 -148 -144 -36 -19 -58 -23 -138 -23 -80 0 -102 4
-138 23 -63 33 -114 84 -148 144 -26 48 -29 62 -29 148 0 79 4 102 23 137 67
127 168 186 307 180 66 -3 90 -8 133 -32z"/>
<path d="M2921 4459 c-58 -18 -115 -64 -143 -116 -53 -98 -356 -789 -363 -826
-10 -61 18 -141 68 -190 35 -35 80 -58 263 -136 212 -90 223 -97 255 -140 41
-56 53 -62 449 -235 l305 -133 3 -216 c2 -200 -3 -278 -72 -1054 -42 -461 -79
-858 -83 -882 -8 -44 -9 -45 -61 -56 -78 -18 -142 -62 -179 -123 -81 -136 -39
-266 98 -306 73 -22 482 -50 524 -36 41 13 90 66 103 110 6 19 68 321 138 670
70 349 130 638 133 642 3 4 40 -222 81 -502 66 -441 74 -511 60 -514 -8 -3
-33 -7 -55 -11 -61 -9 -135 -55 -170 -103 -26 -38 -30 -52 -30 -110 0 -85 23
-128 86 -160 42 -21 61 -22 335 -29 318 -7 339 -4 400 49 18 16 38 46 44 66
14 53 14 3587 -1 3668 -26 144 -133 290 -268 366 l-63 36 -71 -54 c-40 -30
-76 -54 -80 -54 -5 0 -5 -4 -2 -10 3 -5 14 -10 24 -10 10 0 50 -16 88 -35 84
-42 153 -112 191 -193 l27 -57 3 -767 3 -768 -521 0 -520 0 0 180 c0 99 3 180
6 180 4 0 49 -19 101 -41 87 -38 99 -41 161 -37 69 5 120 25 160 62 13 11 84
121 158 243 l135 221 -4 73 c-3 60 -8 76 -27 91 -28 23 -72 23 -98 1 -11 -10
-75 -109 -142 -221 -67 -111 -131 -209 -143 -217 -12 -8 -34 -15 -49 -15 -25
0 -1001 421 -1022 441 -15 13 23 86 48 93 14 4 155 -52 430 -169 224 -96 420
-175 435 -175 60 0 80 26 239 311 94 170 152 285 152 302 0 61 -81 99 -129 60
-11 -10 -80 -124 -152 -253 -72 -129 -132 -236 -133 -238 -4 -3 -219 88 -229
97 -4 4 50 136 120 292 125 278 128 286 128 354 -1 46 -6 81 -18 102 -26 48
-84 100 -130 116 -23 8 -226 94 -452 191 -427 184 -469 198 -544 175z m491
-323 c221 -95 419 -181 440 -191 32 -16 58 -49 58 -75 0 -8 -247 -571 -253
-577 -1 -1 -85 34 -187 78 -102 44 -203 82 -225 85 -93 14 -175 -37 -226 -138
-18 -35 -35 -58 -42 -55 -188 77 -376 163 -389 179 -10 11 -18 30 -18 41 0 36
339 780 366 805 14 12 36 22 49 22 13 0 205 -78 427 -174z m872 -2152 c3 -9 6
-32 6 -53 0 -34 -346 -1761 -355 -1769 -6 -6 -417 26 -438 33 -36 14 -7 87 46
117 12 7 63 15 112 18 l90 5 75 832 75 833 191 0 c166 0 193 -2 198 -16z m676
-905 l0 -920 -274 3 c-151 2 -278 6 -281 10 -14 14 5 55 32 68 17 8 75 15 145
18 114 4 118 5 113 26 -3 11 -59 390 -125 841 -66 451 -123 832 -126 848 l-6
27 261 0 261 0 0 -921z"/>
<path d="M465 4201 c-171 -61 -304 -190 -353 -343 -26 -81 -25 -73 -72 -489
-37 -327 -39 -360 -26 -403 8 -26 26 -62 40 -81 l26 -34 0 -1347 c0 -999 3
-1357 12 -1386 16 -56 74 -105 135 -114 26 -4 172 -4 323 0 257 6 278 8 320
29 62 31 85 74 85 159 0 58 -4 72 -30 110 -37 51 -111 95 -178 104 -27 4 -51
12 -53 19 -5 11 131 824 139 831 2 2 45 -171 96 -384 194 -808 187 -782 223
-819 18 -18 49 -38 69 -43 47 -13 444 14 516 35 139 41 181 170 100 307 -37
61 -114 113 -184 124 -24 3 -46 11 -49 16 -4 6 -42 400 -85 877 -60 659 -79
906 -79 1034 l0 168 44 -6 c63 -10 143 16 182 57 39 41 48 59 64 125 10 46 15
52 33 48 12 -3 114 -21 227 -41 235 -41 281 -39 346 18 46 40 57 65 83 177 19
80 21 101 11 141 -14 57 -58 114 -109 140 -25 12 -174 42 -432 85 -217 36
-406 68 -421 71 l-28 6 0 167 c0 181 -7 235 -40 324 -29 76 -106 181 -128 173
-9 -3 -51 -15 -93 -27 l-75 -21 61 -62 c44 -43 69 -78 86 -121 23 -58 24 -71
27 -367 3 -243 1 -308 -9 -308 -15 0 -663 110 -665 113 0 1 23 130 53 287 29
157 51 295 48 308 -14 58 -89 82 -132 42 -27 -25 -22 -2 -89 -372 -56 -309
-57 -319 -41 -352 9 -19 27 -42 41 -51 15 -10 217 -48 551 -104 422 -71 531
-93 546 -107 17 -18 17 -23 5 -74 -8 -30 -17 -67 -20 -81 -3 -16 -15 -29 -27
-32 -12 -3 -314 46 -673 109 -658 117 -672 120 -697 165 -9 17 60 659 81 763
32 155 176 278 361 309 l72 12 -43 29 c-23 15 -61 45 -84 66 l-41 38 -50 -17z
m1796 -1127 c17 -18 17 -23 5 -74 -8 -30 -17 -67 -20 -81 -3 -16 -15 -29 -27
-32 -29 -8 -473 71 -478 85 -7 21 -75 90 -103 104 -21 11 -167 44 -195 44 -2
0 -3 24 -3 53 l0 54 401 -67 c319 -54 405 -71 420 -86z m-1483 -390 l502 -88
0 -178 0 -178 -520 0 -520 0 0 271 c0 253 1 270 18 265 9 -2 243 -44 520 -92z
m-79 -854 l42 -170 -116 -678 c-63 -372 -117 -687 -120 -698 -5 -21 -2 -22
118 -25 141 -5 177 -18 177 -68 l0 -28 -93 -6 c-52 -4 -178 -3 -280 0 l-187 6
0 919 0 918 209 0 209 0 41 -170z m680 -637 c39 -445 74 -820 77 -834 5 -26 7
-26 82 -26 86 0 127 -15 162 -60 32 -41 24 -76 -20 -84 -50 -10 -409 -33 -416
-27 -4 4 -413 1689 -439 1806 l-7 32 244 0 244 0 73 -807z"/>
<path d="M1723 1428 c-47 -23 -53 -103 -10 -133 32 -22 1742 -22 1774 0 44 31
37 111 -13 134 -34 15 -1719 14 -1751 -1z"/>
<path d="M2243 1108 c-47 -23 -53 -103 -10 -133 32 -22 622 -22 654 0 44 31
37 111 -13 134 -33 15 -600 14 -631 -1z"/>
</g>
</svg>
